<?xml version="1.0" encoding="UTF-8" standalone="no"?>
<!DOCTYPE svg PUBLIC "-//W3C//DTD SVG 1.1//EN"
 "http://www.w3.org/Graphics/SVG/1.1/DTD/svg11.dtd">
<!-- Generated by graphviz version 2.44.1 (20200629.0846)
 -->
<!-- Title: dependencies Pages: 1 -->
<svg width="504pt" height="211pt"
 viewBox="0.00 0.00 504.00 211.00" xmlns="http://www.w3.org/2000/svg" xmlns:xlink="http://www.w3.org/1999/xlink">
<g id="graph0" class="graph" transform="scale(1 1) rotate(0) translate(4 207)">
<title>dependencies</title>
<polygon fill="white" stroke="transparent" points="-4,4 -4,-207 500,-207 500,4 -4,4"/>
<text text-anchor="start" x="227.01" y="-42.4" font-family="sans-serif" font-weight="bold" font-size="14.00">Legend</text>
<polygon fill="#ffffb3" stroke="transparent" points="14,-10 14,-30 34,-30 34,-10 14,-10"/>
<text text-anchor="start" x="37.63" y="-15.4" font-family="sans-serif" font-size="14.00"> &#160;Declarations</text>
<polygon fill="#8dd3c7" stroke="transparent" points="127,-10 127,-30 147,-30 147,-10 127,-10"/>
<text text-anchor="start" x="150.73" y="-15.4" font-family="sans-serif" font-size="14.00"> &#160;Module</text>
<polygon fill="#80b1d3" stroke="transparent" points="213,-10 213,-30 233,-30 233,-10 213,-10"/>
<text text-anchor="start" x="236.78" y="-15.4" font-family="sans-serif" font-size="14.00"> &#160;Bootstrap</text>
<polygon fill="#fdb462" stroke="transparent" points="310,-10 310,-30 330,-30 330,-10 310,-10"/>
<text text-anchor="start" x="333.67" y="-15.4" font-family="sans-serif" font-size="14.00"> &#160;Providers</text>
<polygon fill="#fb8072" stroke="transparent" points="406,-10 406,-30 426,-30 426,-10 406,-10"/>
<text text-anchor="start" x="429.73" y="-15.4" font-family="sans-serif" font-size="14.00"> &#160;Exports</text>
<g id="clust1" class="cluster">
<title>cluster_CoreModule</title>
<polygon fill="none" stroke="black" stroke-dasharray="1,5" points="125,-70 125,-195 371,-195 371,-70 125,-70"/>
</g>
<g id="clust3" class="cluster">
<title>cluster_CoreModule_imports</title>
<polygon fill="none" stroke="black" points="133,-78 133,-130 363,-130 363,-78 133,-78"/>
</g>
<!-- GuardModule -->
<g id="node1" class="node">
<title>GuardModule</title>
<polygon fill="#8dd3c7" stroke="black" points="355.03,-122 352.03,-126 331.03,-126 328.03,-122 260.97,-122 260.97,-86 355.03,-86 355.03,-122"/>
<text text-anchor="middle" x="308" y="-99.8" font-family="Times,serif" font-size="14.00">GuardModule</text>
</g>
<!-- CoreModule -->
<g id="node3" class="node">
<title>CoreModule</title>
<polygon fill="#8dd3c7" stroke="black" points="293.26,-187 290.26,-191 269.26,-191 266.26,-187 206.74,-187 206.74,-151 293.26,-151 293.26,-187"/>
<text text-anchor="middle" x="250" y="-164.8" font-family="Times,serif" font-size="14.00">CoreModule</text>
</g>
<!-- GuardModule&#45;&gt;CoreModule -->
<g id="edge1" class="edge">
<title>GuardModule&#45;&gt;CoreModule</title>
<path fill="none" stroke="black" d="M277.06,-122.11C277.06,-122.11 277.06,-140.99 277.06,-140.99"/>
<polygon fill="black" stroke="black" points="273.56,-140.99 277.06,-150.99 280.56,-140.99 273.56,-140.99"/>
</g>
<!-- ServiceModule -->
<g id="node2" class="node">
<title>ServiceModule</title>
<polygon fill="#8dd3c7" stroke="black" points="242.53,-122 239.53,-126 218.53,-126 215.53,-122 141.47,-122 141.47,-86 242.53,-86 242.53,-122"/>
<text text-anchor="middle" x="192" y="-99.8" font-family="Times,serif" font-size="14.00">ServiceModule</text>
</g>
<!-- ServiceModule&#45;&gt;CoreModule -->
<g id="edge2" class="edge">
<title>ServiceModule&#45;&gt;CoreModule</title>
<path fill="none" stroke="black" d="M224.69,-122.11C224.69,-122.11 224.69,-140.99 224.69,-140.99"/>
<polygon fill="black" stroke="black" points="221.19,-140.99 224.69,-150.99 228.19,-140.99 221.19,-140.99"/>
</g>
</g>
</svg>
