<?xml version="1.0" encoding="UTF-8" standalone="no"?>
<!DOCTYPE svg PUBLIC "-//W3C//DTD SVG 1.1//EN"
 "http://www.w3.org/Graphics/SVG/1.1/DTD/svg11.dtd">
<!-- Generated by graphviz version 2.44.1 (20200629.0846)
 -->
<!-- Title: dependencies Pages: 1 -->
<svg width="504pt" height="211pt"
 viewBox="0.00 0.00 504.00 211.00" xmlns="http://www.w3.org/2000/svg" xmlns:xlink="http://www.w3.org/1999/xlink">
<g id="graph0" class="graph" transform="scale(1 1) rotate(0) translate(4 207)">
<title>dependencies</title>
<polygon fill="white" stroke="transparent" points="-4,4 -4,-207 500,-207 500,4 -4,4"/>
<text text-anchor="start" x="227.01" y="-42.4" font-family="sans-serif" font-weight="bold" font-size="14.00">Legend</text>
<polygon fill="#ffffb3" stroke="transparent" points="14,-10 14,-30 34,-30 34,-10 14,-10"/>
<text text-anchor="start" x="37.63" y="-15.4" font-family="sans-serif" font-size="14.00"> &#160;Declarations</text>
<polygon fill="#8dd3c7" stroke="transparent" points="127,-10 127,-30 147,-30 147,-10 127,-10"/>
<text text-anchor="start" x="150.73" y="-15.4" font-family="sans-serif" font-size="14.00"> &#160;Module</text>
<polygon fill="#80b1d3" stroke="transparent" points="213,-10 213,-30 233,-30 233,-10 213,-10"/>
<text text-anchor="start" x="236.78" y="-15.4" font-family="sans-serif" font-size="14.00"> &#160;Bootstrap</text>
<polygon fill="#fdb462" stroke="transparent" points="310,-10 310,-30 330,-30 330,-10 310,-10"/>
<text text-anchor="start" x="333.67" y="-15.4" font-family="sans-serif" font-size="14.00"> &#160;Providers</text>
<polygon fill="#fb8072" stroke="transparent" points="406,-10 406,-30 426,-30 426,-10 406,-10"/>
<text text-anchor="start" x="429.73" y="-15.4" font-family="sans-serif" font-size="14.00"> &#160;Exports</text>
<g id="clust1" class="cluster">
<title>cluster_ViewsModule</title>
<polygon fill="none" stroke="black" stroke-dasharray="1,5" points="24.5,-70 24.5,-195 471.5,-195 471.5,-70 24.5,-70"/>
</g>
<g id="clust4" class="cluster">
<title>cluster_ViewsModule_imports</title>
<polygon fill="none" stroke="black" points="202.5,-78 202.5,-130 463.5,-130 463.5,-78 202.5,-78"/>
</g>
<g id="clust2" class="cluster">
<title>cluster_ViewsModule_declarations</title>
<polygon fill="none" stroke="black" points="32.5,-78 32.5,-130 194.5,-130 194.5,-78 32.5,-78"/>
</g>
<!-- PortalViewComponent -->
<g id="node1" class="node">
<title>PortalViewComponent</title>
<polygon fill="#ffffb3" stroke="black" points="186.09,-122 40.91,-122 40.91,-86 186.09,-86 186.09,-122"/>
<text text-anchor="middle" x="113.5" y="-99.8" font-family="Times,serif" font-size="14.00">PortalViewComponent</text>
</g>
<!-- ViewsModule -->
<g id="node2" class="node">
<title>ViewsModule</title>
<polygon fill="#8dd3c7" stroke="black" points="328.31,-187 325.31,-191 304.31,-191 301.31,-187 232.69,-187 232.69,-151 328.31,-151 328.31,-187"/>
<text text-anchor="middle" x="280.5" y="-164.8" font-family="Times,serif" font-size="14.00">ViewsModule</text>
</g>
<!-- PortalViewComponent&#45;&gt;ViewsModule -->
<g id="edge1" class="edge">
<title>PortalViewComponent&#45;&gt;ViewsModule</title>
<path fill="none" stroke="black" d="M113.5,-122.11C113.5,-141.34 113.5,-169 113.5,-169 113.5,-169 222.64,-169 222.64,-169"/>
<polygon fill="black" stroke="black" points="222.64,-172.5 232.64,-169 222.64,-165.5 222.64,-172.5"/>
</g>
<!-- CoreModule -->
<g id="node3" class="node">
<title>CoreModule</title>
<polygon fill="#8dd3c7" stroke="black" points="455.76,-122 452.76,-126 431.76,-126 428.76,-122 369.24,-122 369.24,-86 455.76,-86 455.76,-122"/>
<text text-anchor="middle" x="412.5" y="-99.8" font-family="Times,serif" font-size="14.00">CoreModule</text>
</g>
<!-- CoreModule&#45;&gt;ViewsModule -->
<g id="edge2" class="edge">
<title>CoreModule&#45;&gt;ViewsModule</title>
<path fill="none" stroke="black" d="M412.5,-122.11C412.5,-141.34 412.5,-169 412.5,-169 412.5,-169 338.53,-169 338.53,-169"/>
<polygon fill="black" stroke="black" points="338.53,-165.5 328.53,-169 338.53,-172.5 338.53,-165.5"/>
</g>
<!-- ViewsRoutingModule -->
<g id="node4" class="node">
<title>ViewsRoutingModule</title>
<polygon fill="#8dd3c7" stroke="black" points="350.93,-122 347.93,-126 326.93,-126 323.93,-122 210.07,-122 210.07,-86 350.93,-86 350.93,-122"/>
<text text-anchor="middle" x="280.5" y="-99.8" font-family="Times,serif" font-size="14.00">ViewsRoutingModule</text>
</g>
<!-- ViewsRoutingModule&#45;&gt;ViewsModule -->
<g id="edge3" class="edge">
<title>ViewsRoutingModule&#45;&gt;ViewsModule</title>
<path fill="none" stroke="black" d="M280.5,-122.11C280.5,-122.11 280.5,-140.99 280.5,-140.99"/>
<polygon fill="black" stroke="black" points="277,-140.99 280.5,-150.99 284,-140.99 277,-140.99"/>
</g>
</g>
</svg>
