<?xml version="1.0" encoding="UTF-8" standalone="no"?>
<!DOCTYPE svg PUBLIC "-//W3C//DTD SVG 1.1//EN"
 "http://www.w3.org/Graphics/SVG/1.1/DTD/svg11.dtd">
<!-- Generated by graphviz version 2.44.1 (20200629.0846)
 -->
<!-- Title: dependencies Pages: 1 -->
<svg width="504pt" height="211pt"
 viewBox="0.00 0.00 504.00 211.00" xmlns="http://www.w3.org/2000/svg" xmlns:xlink="http://www.w3.org/1999/xlink">
<g id="graph0" class="graph" transform="scale(1 1) rotate(0) translate(4 207)">
<title>dependencies</title>
<polygon fill="white" stroke="transparent" points="-4,4 -4,-207 500,-207 500,4 -4,4"/>
<text text-anchor="start" x="227.01" y="-42.4" font-family="sans-serif" font-weight="bold" font-size="14.00">Legend</text>
<polygon fill="#ffffb3" stroke="transparent" points="14,-10 14,-30 34,-30 34,-10 14,-10"/>
<text text-anchor="start" x="37.63" y="-15.4" font-family="sans-serif" font-size="14.00"> &#160;Declarations</text>
<polygon fill="#8dd3c7" stroke="transparent" points="127,-10 127,-30 147,-30 147,-10 127,-10"/>
<text text-anchor="start" x="150.73" y="-15.4" font-family="sans-serif" font-size="14.00"> &#160;Module</text>
<polygon fill="#80b1d3" stroke="transparent" points="213,-10 213,-30 233,-30 233,-10 213,-10"/>
<text text-anchor="start" x="236.78" y="-15.4" font-family="sans-serif" font-size="14.00"> &#160;Bootstrap</text>
<polygon fill="#fdb462" stroke="transparent" points="310,-10 310,-30 330,-30 330,-10 310,-10"/>
<text text-anchor="start" x="333.67" y="-15.4" font-family="sans-serif" font-size="14.00"> &#160;Providers</text>
<polygon fill="#fb8072" stroke="transparent" points="406,-10 406,-30 426,-30 426,-10 406,-10"/>
<text text-anchor="start" x="429.73" y="-15.4" font-family="sans-serif" font-size="14.00"> &#160;Exports</text>
<g id="clust1" class="cluster">
<title>cluster_ServiceModule</title>
<polygon fill="none" stroke="black" stroke-dasharray="1,5" points="83,-70 83,-195 413,-195 413,-70 83,-70"/>
</g>
<g id="clust6" class="cluster">
<title>cluster_ServiceModule_providers</title>
<polygon fill="none" stroke="black" points="91,-78 91,-130 405,-130 405,-78 91,-78"/>
</g>
<!-- FeedbackService -->
<g id="node1" class="node">
<title>FeedbackService</title>
<ellipse fill="#fdb462" stroke="black" cx="320" cy="-104" rx="76.98" ry="18"/>
<text text-anchor="middle" x="320" y="-99.8" font-family="Times,serif" font-size="14.00">FeedbackService</text>
</g>
<!-- ServiceModule -->
<g id="node3" class="node">
<title>ServiceModule</title>
<polygon fill="#8dd3c7" stroke="black" points="291.53,-187 288.53,-191 267.53,-191 264.53,-187 190.47,-187 190.47,-151 291.53,-151 291.53,-187"/>
<text text-anchor="middle" x="241" y="-164.8" font-family="Times,serif" font-size="14.00">ServiceModule</text>
</g>
<!-- FeedbackService&#45;&gt;ServiceModule -->
<g id="edge1" class="edge">
<title>FeedbackService&#45;&gt;ServiceModule</title>
<path fill="none" stroke="black" d="M267.39,-117.15C267.39,-117.15 267.39,-140.69 267.39,-140.69"/>
<polygon fill="black" stroke="black" points="263.89,-140.69 267.39,-150.69 270.89,-140.69 263.89,-140.69"/>
</g>
<!-- PortalService -->
<g id="node2" class="node">
<title>PortalService</title>
<ellipse fill="#fdb462" stroke="black" cx="162" cy="-104" rx="63.12" ry="18"/>
<text text-anchor="middle" x="162" y="-99.8" font-family="Times,serif" font-size="14.00">PortalService</text>
</g>
<!-- PortalService&#45;&gt;ServiceModule -->
<g id="edge2" class="edge">
<title>PortalService&#45;&gt;ServiceModule</title>
<path fill="none" stroke="black" d="M207.65,-116.53C207.65,-116.53 207.65,-140.85 207.65,-140.85"/>
<polygon fill="black" stroke="black" points="204.15,-140.85 207.65,-150.85 211.15,-140.85 204.15,-140.85"/>
</g>
</g>
</svg>
