<?xml version="1.0" encoding="UTF-8" standalone="no"?>
<!DOCTYPE svg PUBLIC "-//W3C//DTD SVG 1.1//EN"
 "http://www.w3.org/Graphics/SVG/1.1/DTD/svg11.dtd">
<!-- Generated by graphviz version 2.44.1 (20200629.0846)
 -->
<!-- Title: dependencies Pages: 1 -->
<svg width="504pt" height="211pt"
 viewBox="0.00 0.00 504.00 211.00" xmlns="http://www.w3.org/2000/svg" xmlns:xlink="http://www.w3.org/1999/xlink">
<g id="graph0" class="graph" transform="scale(1 1) rotate(0) translate(4 207)">
<title>dependencies</title>
<polygon fill="white" stroke="transparent" points="-4,4 -4,-207 500,-207 500,4 -4,4"/>
<text text-anchor="start" x="227.01" y="-42.4" font-family="sans-serif" font-weight="bold" font-size="14.00">Legend</text>
<polygon fill="#ffffb3" stroke="transparent" points="14,-10 14,-30 34,-30 34,-10 14,-10"/>
<text text-anchor="start" x="37.63" y="-15.4" font-family="sans-serif" font-size="14.00"> &#160;Declarations</text>
<polygon fill="#8dd3c7" stroke="transparent" points="127,-10 127,-30 147,-30 147,-10 127,-10"/>
<text text-anchor="start" x="150.73" y="-15.4" font-family="sans-serif" font-size="14.00"> &#160;Module</text>
<polygon fill="#80b1d3" stroke="transparent" points="213,-10 213,-30 233,-30 233,-10 213,-10"/>
<text text-anchor="start" x="236.78" y="-15.4" font-family="sans-serif" font-size="14.00"> &#160;Bootstrap</text>
<polygon fill="#fdb462" stroke="transparent" points="310,-10 310,-30 330,-30 330,-10 310,-10"/>
<text text-anchor="start" x="333.67" y="-15.4" font-family="sans-serif" font-size="14.00"> &#160;Providers</text>
<polygon fill="#fb8072" stroke="transparent" points="406,-10 406,-30 426,-30 426,-10 406,-10"/>
<text text-anchor="start" x="429.73" y="-15.4" font-family="sans-serif" font-size="14.00"> &#160;Exports</text>
<g id="clust1" class="cluster">
<title>cluster_InboxModule</title>
<polygon fill="none" stroke="black" stroke-dasharray="1,5" points="94,-70 94,-195 402,-195 402,-70 94,-70"/>
</g>
<g id="clust4" class="cluster">
<title>cluster_InboxModule_imports</title>
<polygon fill="none" stroke="black" points="240,-78 240,-130 394,-130 394,-78 240,-78"/>
</g>
<g id="clust2" class="cluster">
<title>cluster_InboxModule_declarations</title>
<polygon fill="none" stroke="black" points="102,-78 102,-130 232,-130 232,-78 102,-78"/>
</g>
<!-- InboxComponent -->
<g id="node1" class="node">
<title>InboxComponent</title>
<polygon fill="#ffffb3" stroke="black" points="223.99,-122 110.01,-122 110.01,-86 223.99,-86 223.99,-122"/>
<text text-anchor="middle" x="167" y="-99.8" font-family="Times,serif" font-size="14.00">InboxComponent</text>
</g>
<!-- InboxModule -->
<g id="node2" class="node">
<title>InboxModule</title>
<polygon fill="#8dd3c7" stroke="black" points="288.21,-187 285.21,-191 264.21,-191 261.21,-187 195.79,-187 195.79,-151 288.21,-151 288.21,-187"/>
<text text-anchor="middle" x="242" y="-164.8" font-family="Times,serif" font-size="14.00">InboxModule</text>
</g>
<!-- InboxComponent&#45;&gt;InboxModule -->
<g id="edge1" class="edge">
<title>InboxComponent&#45;&gt;InboxModule</title>
<path fill="none" stroke="black" d="M209.95,-122.11C209.95,-122.11 209.95,-140.99 209.95,-140.99"/>
<polygon fill="black" stroke="black" points="206.45,-140.99 209.95,-150.99 213.45,-140.99 206.45,-140.99"/>
</g>
<!-- InboxRoutingModule -->
<g id="node3" class="node">
<title>InboxRoutingModule</title>
<polygon fill="#8dd3c7" stroke="black" points="385.83,-122 382.83,-126 361.83,-126 358.83,-122 248.17,-122 248.17,-86 385.83,-86 385.83,-122"/>
<text text-anchor="middle" x="317" y="-99.8" font-family="Times,serif" font-size="14.00">InboxRoutingModule</text>
</g>
<!-- InboxRoutingModule&#45;&gt;InboxModule -->
<g id="edge2" class="edge">
<title>InboxRoutingModule&#45;&gt;InboxModule</title>
<path fill="none" stroke="black" d="M268.22,-122.11C268.22,-122.11 268.22,-140.99 268.22,-140.99"/>
<polygon fill="black" stroke="black" points="264.72,-140.99 268.22,-150.99 271.72,-140.99 264.72,-140.99"/>
</g>
</g>
</svg>
