<?xml version="1.0" encoding="UTF-8" standalone="no"?>
<!DOCTYPE svg PUBLIC "-//W3C//DTD SVG 1.1//EN"
 "http://www.w3.org/Graphics/SVG/1.1/DTD/svg11.dtd">
<!-- Generated by graphviz version 2.44.1 (20200629.0846)
 -->
<!-- Title: dependencies Pages: 1 -->
<svg width="504pt" height="211pt"
 viewBox="0.00 0.00 504.00 211.00" xmlns="http://www.w3.org/2000/svg" xmlns:xlink="http://www.w3.org/1999/xlink">
<g id="graph0" class="graph" transform="scale(1 1) rotate(0) translate(4 207)">
<title>dependencies</title>
<polygon fill="white" stroke="transparent" points="-4,4 -4,-207 500,-207 500,4 -4,4"/>
<text text-anchor="start" x="227.01" y="-42.4" font-family="sans-serif" font-weight="bold" font-size="14.00">Legend</text>
<polygon fill="#ffffb3" stroke="transparent" points="14,-10 14,-30 34,-30 34,-10 14,-10"/>
<text text-anchor="start" x="37.63" y="-15.4" font-family="sans-serif" font-size="14.00"> &#160;Declarations</text>
<polygon fill="#8dd3c7" stroke="transparent" points="127,-10 127,-30 147,-30 147,-10 127,-10"/>
<text text-anchor="start" x="150.73" y="-15.4" font-family="sans-serif" font-size="14.00"> &#160;Module</text>
<polygon fill="#80b1d3" stroke="transparent" points="213,-10 213,-30 233,-30 233,-10 213,-10"/>
<text text-anchor="start" x="236.78" y="-15.4" font-family="sans-serif" font-size="14.00"> &#160;Bootstrap</text>
<polygon fill="#fdb462" stroke="transparent" points="310,-10 310,-30 330,-30 330,-10 310,-10"/>
<text text-anchor="start" x="333.67" y="-15.4" font-family="sans-serif" font-size="14.00"> &#160;Providers</text>
<polygon fill="#fb8072" stroke="transparent" points="406,-10 406,-30 426,-30 426,-10 406,-10"/>
<text text-anchor="start" x="429.73" y="-15.4" font-family="sans-serif" font-size="14.00"> &#160;Exports</text>
<g id="clust1" class="cluster">
<title>cluster_SettingModule</title>
<polygon fill="none" stroke="black" stroke-dasharray="1,5" points="87,-70 87,-195 409,-195 409,-70 87,-70"/>
</g>
<g id="clust2" class="cluster">
<title>cluster_SettingModule_declarations</title>
<polygon fill="none" stroke="black" points="263,-78 263,-130 401,-130 401,-78 263,-78"/>
</g>
<g id="clust4" class="cluster">
<title>cluster_SettingModule_imports</title>
<polygon fill="none" stroke="black" points="95,-78 95,-130 255,-130 255,-78 95,-78"/>
</g>
<!-- SettingComponent -->
<g id="node1" class="node">
<title>SettingComponent</title>
<polygon fill="#ffffb3" stroke="black" points="392.5,-122 271.5,-122 271.5,-86 392.5,-86 392.5,-122"/>
<text text-anchor="middle" x="332" y="-99.8" font-family="Times,serif" font-size="14.00">SettingComponent</text>
</g>
<!-- SettingModule -->
<g id="node2" class="node">
<title>SettingModule</title>
<polygon fill="#8dd3c7" stroke="black" points="302.72,-187 299.72,-191 278.72,-191 275.72,-187 203.28,-187 203.28,-151 302.72,-151 302.72,-187"/>
<text text-anchor="middle" x="253" y="-164.8" font-family="Times,serif" font-size="14.00">SettingModule</text>
</g>
<!-- SettingComponent&#45;&gt;SettingModule -->
<g id="edge1" class="edge">
<title>SettingComponent&#45;&gt;SettingModule</title>
<path fill="none" stroke="black" d="M287.05,-122.11C287.05,-122.11 287.05,-140.99 287.05,-140.99"/>
<polygon fill="black" stroke="black" points="283.55,-140.99 287.05,-150.99 290.55,-140.99 283.55,-140.99"/>
</g>
<!-- SettingRoutingModule -->
<g id="node3" class="node">
<title>SettingRoutingModule</title>
<polygon fill="#8dd3c7" stroke="black" points="247.34,-122 244.34,-126 223.34,-126 220.34,-122 102.66,-122 102.66,-86 247.34,-86 247.34,-122"/>
<text text-anchor="middle" x="175" y="-99.8" font-family="Times,serif" font-size="14.00">SettingRoutingModule</text>
</g>
<!-- SettingRoutingModule&#45;&gt;SettingModule -->
<g id="edge2" class="edge">
<title>SettingRoutingModule&#45;&gt;SettingModule</title>
<path fill="none" stroke="black" d="M225.28,-122.11C225.28,-122.11 225.28,-140.99 225.28,-140.99"/>
<polygon fill="black" stroke="black" points="221.78,-140.99 225.28,-150.99 228.78,-140.99 221.78,-140.99"/>
</g>
</g>
</svg>
