<?xml version="1.0" encoding="UTF-8" standalone="no"?>
<!DOCTYPE svg PUBLIC "-//W3C//DTD SVG 1.1//EN"
 "http://www.w3.org/Graphics/SVG/1.1/DTD/svg11.dtd">
<!-- Generated by graphviz version 2.44.1 (20200629.0846)
 -->
<!-- Title: dependencies Pages: 1 -->
<svg width="3906pt" height="436pt"
 viewBox="0.00 0.00 3906.00 436.00" xmlns="http://www.w3.org/2000/svg" xmlns:xlink="http://www.w3.org/1999/xlink">
<g id="graph0" class="graph" transform="scale(1 1) rotate(0) translate(4 432)">
<title>dependencies</title>
<polygon fill="white" stroke="transparent" points="-4,4 -4,-432 3902,-432 3902,4 -4,4"/>
<text text-anchor="start" x="1928.01" y="-42.4" font-family="sans-serif" font-weight="bold" font-size="14.00">Legend</text>
<polygon fill="#ffffb3" stroke="transparent" points="1715,-10 1715,-30 1735,-30 1735,-10 1715,-10"/>
<text text-anchor="start" x="1738.63" y="-15.4" font-family="sans-serif" font-size="14.00"> &#160;Declarations</text>
<polygon fill="#8dd3c7" stroke="transparent" points="1828,-10 1828,-30 1848,-30 1848,-10 1828,-10"/>
<text text-anchor="start" x="1851.73" y="-15.4" font-family="sans-serif" font-size="14.00"> &#160;Module</text>
<polygon fill="#80b1d3" stroke="transparent" points="1914,-10 1914,-30 1934,-30 1934,-10 1914,-10"/>
<text text-anchor="start" x="1937.78" y="-15.4" font-family="sans-serif" font-size="14.00"> &#160;Bootstrap</text>
<polygon fill="#fdb462" stroke="transparent" points="2011,-10 2011,-30 2031,-30 2031,-10 2011,-10"/>
<text text-anchor="start" x="2034.67" y="-15.4" font-family="sans-serif" font-size="14.00"> &#160;Providers</text>
<polygon fill="#fb8072" stroke="transparent" points="2107,-10 2107,-30 2127,-30 2127,-10 2107,-10"/>
<text text-anchor="start" x="2130.73" y="-15.4" font-family="sans-serif" font-size="14.00"> &#160;Exports</text>
<g id="clust1" class="cluster">
<title>cluster_AppModule</title>
<polygon fill="none" stroke="black" stroke-dasharray="1,5" points="874,-222 874,-420 1269,-420 1269,-222 874,-222"/>
</g>
<g id="clust2" class="cluster">
<title>cluster_AppModule_declarations</title>
<polygon fill="none" stroke="black" points="1139,-230 1139,-282 1261,-282 1261,-230 1139,-230"/>
</g>
<g id="clust4" class="cluster">
<title>cluster_AppModule_imports</title>
<polygon fill="none" stroke="black" points="882,-230 882,-282 1131,-282 1131,-230 882,-230"/>
</g>
<g id="clust6" class="cluster">
<title>cluster_AppModule_bootstrap</title>
<polygon fill="none" stroke="black" points="997,-360 997,-412 1121,-412 1121,-360 997,-360"/>
</g>
<g id="clust14" class="cluster">
<title>cluster_CoreModule</title>
<polygon fill="none" stroke="black" stroke-dasharray="1,5" points="808,-146 808,-214 1054,-214 1054,-146 808,-146"/>
</g>
<g id="clust16" class="cluster">
<title>cluster_CoreModule_imports</title>
<polygon fill="none" stroke="black" points="816,-154 816,-206 1046,-206 1046,-154 816,-154"/>
</g>
<g id="clust20" class="cluster">
<title>cluster_DocumentationModule</title>
<polygon fill="none" stroke="black" stroke-dasharray="1,5" points="1098,-70 1098,-206 1512,-206 1512,-70 1098,-70"/>
</g>
<g id="clust21" class="cluster">
<title>cluster_DocumentationModule_declarations</title>
<polygon fill="none" stroke="black" points="1320,-78 1320,-130 1504,-130 1504,-78 1320,-78"/>
</g>
<g id="clust23" class="cluster">
<title>cluster_DocumentationModule_imports</title>
<polygon fill="none" stroke="black" points="1106,-78 1106,-130 1312,-130 1312,-78 1106,-78"/>
</g>
<g id="clust39" class="cluster">
<title>cluster_HomeModule</title>
<polygon fill="none" stroke="black" stroke-dasharray="1,5" points="1520,-70 1520,-206 1830,-206 1830,-70 1520,-70"/>
</g>
<g id="clust40" class="cluster">
<title>cluster_HomeModule_declarations</title>
<polygon fill="none" stroke="black" points="1690,-78 1690,-130 1822,-130 1822,-78 1690,-78"/>
</g>
<g id="clust42" class="cluster">
<title>cluster_HomeModule_imports</title>
<polygon fill="none" stroke="black" points="1528,-78 1528,-130 1682,-130 1682,-78 1528,-78"/>
</g>
<g id="clust52" class="cluster">
<title>cluster_InboxModule</title>
<polygon fill="none" stroke="black" stroke-dasharray="1,5" points="1838,-70 1838,-206 2146,-206 2146,-70 1838,-70"/>
</g>
<g id="clust53" class="cluster">
<title>cluster_InboxModule_declarations</title>
<polygon fill="none" stroke="black" points="2008,-78 2008,-130 2138,-130 2138,-78 2008,-78"/>
</g>
<g id="clust55" class="cluster">
<title>cluster_InboxModule_imports</title>
<polygon fill="none" stroke="black" points="1846,-78 1846,-130 2000,-130 2000,-78 1846,-78"/>
</g>
<g id="clust83" class="cluster">
<title>cluster_ServiceModule</title>
<polygon fill="none" stroke="black" stroke-dasharray="1,5" points="760,-70 760,-138 1090,-138 1090,-70 760,-70"/>
</g>
<g id="clust88" class="cluster">
<title>cluster_ServiceModule_providers</title>
<polygon fill="none" stroke="black" points="768,-78 768,-130 1082,-130 1082,-78 768,-78"/>
</g>
<g id="clust89" class="cluster">
<title>cluster_SettingModule</title>
<polygon fill="none" stroke="black" stroke-dasharray="1,5" points="2154,-70 2154,-206 2476,-206 2476,-70 2154,-70"/>
</g>
<g id="clust90" class="cluster">
<title>cluster_SettingModule_declarations</title>
<polygon fill="none" stroke="black" points="2330,-78 2330,-130 2468,-130 2468,-78 2330,-78"/>
</g>
<g id="clust92" class="cluster">
<title>cluster_SettingModule_imports</title>
<polygon fill="none" stroke="black" points="2162,-78 2162,-130 2322,-130 2322,-78 2162,-78"/>
</g>
<g id="clust102" class="cluster">
<title>cluster_SharedModule</title>
<polygon fill="none" stroke="black" stroke-dasharray="1,5" points="2484,-70 2484,-290 3704,-290 3704,-70 2484,-70"/>
</g>
<g id="clust103" class="cluster">
<title>cluster_SharedModule_declarations</title>
<polygon fill="none" stroke="black" points="2510,-78 2510,-130 3685,-130 3685,-78 2510,-78"/>
</g>
<g id="clust106" class="cluster">
<title>cluster_SharedModule_exports</title>
<polygon fill="none" stroke="black" points="2492,-230 2492,-282 3696,-282 3696,-230 2492,-230"/>
</g>
<g id="clust122" class="cluster">
<title>cluster_UtilsModule</title>
<polygon fill="none" stroke="black" stroke-dasharray="1,5" points="3712,-70 3712,-206 3890,-206 3890,-70 3712,-70"/>
</g>
<g id="clust127" class="cluster">
<title>cluster_UtilsModule_providers</title>
<polygon fill="none" stroke="black" points="3720,-78 3720,-130 3882,-130 3882,-78 3720,-78"/>
</g>
<g id="clust128" class="cluster">
<title>cluster_ViewsModule</title>
<polygon fill="none" stroke="black" stroke-dasharray="1,5" points="8,-222 8,-347 866,-347 866,-222 8,-222"/>
</g>
<g id="clust129" class="cluster">
<title>cluster_ViewsModule_declarations</title>
<polygon fill="none" stroke="black" points="180,-230 180,-282 858,-282 858,-230 180,-230"/>
</g>
<g id="clust131" class="cluster">
<title>cluster_ViewsModule_imports</title>
<polygon fill="none" stroke="black" points="16,-230 16,-282 172,-282 172,-230 16,-230"/>
</g>
<!-- AppComponent -->
<g id="node1" class="node">
<title>AppComponent</title>
<polygon fill="#ffffb3" stroke="black" points="1252.94,-274 1147.06,-274 1147.06,-238 1252.94,-238 1252.94,-274"/>
<text text-anchor="middle" x="1200" y="-251.8" font-family="Times,serif" font-size="14.00">AppComponent</text>
</g>
<!-- AppModule -->
<g id="node2" class="node">
<title>AppModule</title>
<polygon fill="#8dd3c7" stroke="black" points="1100.66,-339 1097.66,-343 1076.66,-343 1073.66,-339 1017.34,-339 1017.34,-303 1100.66,-303 1100.66,-339"/>
<text text-anchor="middle" x="1059" y="-316.8" font-family="Times,serif" font-size="14.00">AppModule</text>
</g>
<!-- AppComponent&#45;&gt;AppModule -->
<g id="edge1" class="edge">
<title>AppComponent&#45;&gt;AppModule</title>
<path fill="none" stroke="black" d="M1200,-274.11C1200,-293.34 1200,-321 1200,-321 1200,-321 1110.92,-321 1110.92,-321"/>
<polygon fill="black" stroke="black" points="1110.92,-317.5 1100.92,-321 1110.92,-324.5 1110.92,-317.5"/>
</g>
<!-- AppComponent  -->
<g id="node5" class="node">
<title>AppComponent </title>
<polygon fill="#80b1d3" stroke="black" points="1113.44,-404 1004.56,-404 1004.56,-368 1113.44,-368 1113.44,-404"/>
<text text-anchor="middle" x="1059" y="-381.8" font-family="Times,serif" font-size="14.00">AppComponent </text>
</g>
<!-- AppModule&#45;&gt;AppComponent  -->
<g id="edge4" class="edge">
<title>AppModule&#45;&gt;AppComponent </title>
<path fill="none" stroke="black" stroke-dasharray="1,5" d="M1059,-339.11C1059,-339.11 1059,-357.99 1059,-357.99"/>
<polygon fill="black" stroke="black" points="1055.5,-357.99 1059,-367.99 1062.5,-357.99 1055.5,-357.99"/>
</g>
<!-- AppRoutingModule -->
<g id="node3" class="node">
<title>AppRoutingModule</title>
<polygon fill="#8dd3c7" stroke="black" points="1123.27,-274 1120.27,-278 1099.27,-278 1096.27,-274 994.73,-274 994.73,-238 1123.27,-238 1123.27,-274"/>
<text text-anchor="middle" x="1059" y="-251.8" font-family="Times,serif" font-size="14.00">AppRoutingModule</text>
</g>
<!-- AppRoutingModule&#45;&gt;AppModule -->
<g id="edge2" class="edge">
<title>AppRoutingModule&#45;&gt;AppModule</title>
<path fill="none" stroke="black" d="M1059,-274.11C1059,-274.11 1059,-292.99 1059,-292.99"/>
<polygon fill="black" stroke="black" points="1055.5,-292.99 1059,-302.99 1062.5,-292.99 1055.5,-292.99"/>
</g>
<!-- CoreModule -->
<g id="node4" class="node">
<title>CoreModule</title>
<polygon fill="#8dd3c7" stroke="black" points="976.26,-274 973.26,-278 952.26,-278 949.26,-274 889.74,-274 889.74,-238 976.26,-238 976.26,-274"/>
<text text-anchor="middle" x="933" y="-251.8" font-family="Times,serif" font-size="14.00">CoreModule</text>
</g>
<!-- CoreModule&#45;&gt;AppModule -->
<g id="edge3" class="edge">
<title>CoreModule&#45;&gt;AppModule</title>
<path fill="none" stroke="black" d="M947.46,-274.25C947.46,-297.02 947.46,-333 947.46,-333 947.46,-333 1007.15,-333 1007.15,-333"/>
<polygon fill="black" stroke="black" points="1007.15,-336.5 1017.15,-333 1007.15,-329.5 1007.15,-336.5"/>
</g>
<!-- ViewsModule -->
<g id="node42" class="node">
<title>ViewsModule</title>
<polygon fill="#8dd3c7" stroke="black" points="304.81,-339 301.81,-343 280.81,-343 277.81,-339 209.19,-339 209.19,-303 304.81,-303 304.81,-339"/>
<text text-anchor="middle" x="257" y="-316.8" font-family="Times,serif" font-size="14.00">ViewsModule</text>
</g>
<!-- CoreModule&#45;&gt;ViewsModule -->
<g id="edge35" class="edge">
<title>CoreModule&#45;&gt;ViewsModule</title>
<path fill="none" stroke="black" d="M918.54,-274.28C918.54,-295.32 918.54,-327 918.54,-327 918.54,-327 314.84,-327 314.84,-327"/>
<polygon fill="black" stroke="black" points="314.84,-323.5 304.84,-327 314.84,-330.5 314.84,-323.5"/>
</g>
<!-- GuardModule -->
<g id="node6" class="node">
<title>GuardModule</title>
<polygon fill="#8dd3c7" stroke="black" points="1038.03,-198 1035.03,-202 1014.03,-202 1011.03,-198 943.97,-198 943.97,-162 1038.03,-162 1038.03,-198"/>
<text text-anchor="middle" x="991" y="-175.8" font-family="Times,serif" font-size="14.00">GuardModule</text>
</g>
<!-- GuardModule&#45;&gt;CoreModule -->
<g id="edge5" class="edge">
<title>GuardModule&#45;&gt;CoreModule</title>
<path fill="none" stroke="black" d="M960.06,-198.01C960.06,-198.01 960.06,-227.85 960.06,-227.85"/>
<polygon fill="black" stroke="black" points="956.56,-227.85 960.06,-237.85 963.56,-227.85 956.56,-227.85"/>
</g>
<!-- ServiceModule -->
<g id="node7" class="node">
<title>ServiceModule</title>
<polygon fill="#8dd3c7" stroke="black" points="925.53,-198 922.53,-202 901.53,-202 898.53,-198 824.47,-198 824.47,-162 925.53,-162 925.53,-198"/>
<text text-anchor="middle" x="875" y="-175.8" font-family="Times,serif" font-size="14.00">ServiceModule</text>
</g>
<!-- ServiceModule&#45;&gt;CoreModule -->
<g id="edge6" class="edge">
<title>ServiceModule&#45;&gt;CoreModule</title>
<path fill="none" stroke="black" d="M907.69,-198.01C907.69,-198.01 907.69,-227.85 907.69,-227.85"/>
<polygon fill="black" stroke="black" points="904.19,-227.85 907.69,-237.85 911.19,-227.85 904.19,-227.85"/>
</g>
<!-- DocumentationComponent -->
<g id="node8" class="node">
<title>DocumentationComponent</title>
<polygon fill="#ffffb3" stroke="black" points="1495.65,-122 1328.35,-122 1328.35,-86 1495.65,-86 1495.65,-122"/>
<text text-anchor="middle" x="1412" y="-99.8" font-family="Times,serif" font-size="14.00">DocumentationComponent</text>
</g>
<!-- DocumentationModule -->
<g id="node9" class="node">
<title>DocumentationModule</title>
<polygon fill="#8dd3c7" stroke="black" points="1382.86,-198 1379.86,-202 1358.86,-202 1355.86,-198 1237.14,-198 1237.14,-162 1382.86,-162 1382.86,-198"/>
<text text-anchor="middle" x="1310" y="-175.8" font-family="Times,serif" font-size="14.00">DocumentationModule</text>
</g>
<!-- DocumentationComponent&#45;&gt;DocumentationModule -->
<g id="edge7" class="edge">
<title>DocumentationComponent&#45;&gt;DocumentationModule</title>
<path fill="none" stroke="black" d="M1355.55,-122.01C1355.55,-122.01 1355.55,-151.85 1355.55,-151.85"/>
<polygon fill="black" stroke="black" points="1352.05,-151.85 1355.55,-161.85 1359.05,-151.85 1352.05,-151.85"/>
</g>
<!-- DocumentationRoutingModule -->
<g id="node10" class="node">
<title>DocumentationRoutingModule</title>
<polygon fill="#8dd3c7" stroke="black" points="1304.48,-122 1301.48,-126 1280.48,-126 1277.48,-122 1113.52,-122 1113.52,-86 1304.48,-86 1304.48,-122"/>
<text text-anchor="middle" x="1209" y="-99.8" font-family="Times,serif" font-size="14.00">DocumentationRoutingModule</text>
</g>
<!-- DocumentationRoutingModule&#45;&gt;DocumentationModule -->
<g id="edge8" class="edge">
<title>DocumentationRoutingModule&#45;&gt;DocumentationModule</title>
<path fill="none" stroke="black" d="M1270.78,-122.01C1270.78,-122.01 1270.78,-151.85 1270.78,-151.85"/>
<polygon fill="black" stroke="black" points="1267.28,-151.85 1270.78,-161.85 1274.28,-151.85 1267.28,-151.85"/>
</g>
<!-- HomeComponent -->
<g id="node11" class="node">
<title>HomeComponent</title>
<polygon fill="#ffffb3" stroke="black" points="1813.55,-122 1698.45,-122 1698.45,-86 1813.55,-86 1813.55,-122"/>
<text text-anchor="middle" x="1756" y="-99.8" font-family="Times,serif" font-size="14.00">HomeComponent</text>
</g>
<!-- HomeModule -->
<g id="node12" class="node">
<title>HomeModule</title>
<polygon fill="#8dd3c7" stroke="black" points="1726.76,-198 1723.76,-202 1702.76,-202 1699.76,-198 1633.24,-198 1633.24,-162 1726.76,-162 1726.76,-198"/>
<text text-anchor="middle" x="1680" y="-175.8" font-family="Times,serif" font-size="14.00">HomeModule</text>
</g>
<!-- HomeComponent&#45;&gt;HomeModule -->
<g id="edge9" class="edge">
<title>HomeComponent&#45;&gt;HomeModule</title>
<path fill="none" stroke="black" d="M1712.55,-122.01C1712.55,-122.01 1712.55,-151.85 1712.55,-151.85"/>
<polygon fill="black" stroke="black" points="1709.05,-151.85 1712.55,-161.85 1716.05,-151.85 1709.05,-151.85"/>
</g>
<!-- HomeRoutingModule -->
<g id="node13" class="node">
<title>HomeRoutingModule</title>
<polygon fill="#8dd3c7" stroke="black" points="1674.38,-122 1671.38,-126 1650.38,-126 1647.38,-122 1535.62,-122 1535.62,-86 1674.38,-86 1674.38,-122"/>
<text text-anchor="middle" x="1605" y="-99.8" font-family="Times,serif" font-size="14.00">HomeRoutingModule</text>
</g>
<!-- HomeRoutingModule&#45;&gt;HomeModule -->
<g id="edge10" class="edge">
<title>HomeRoutingModule&#45;&gt;HomeModule</title>
<path fill="none" stroke="black" d="M1653.78,-122.01C1653.78,-122.01 1653.78,-151.85 1653.78,-151.85"/>
<polygon fill="black" stroke="black" points="1650.28,-151.85 1653.78,-161.85 1657.28,-151.85 1650.28,-151.85"/>
</g>
<!-- InboxComponent -->
<g id="node14" class="node">
<title>InboxComponent</title>
<polygon fill="#ffffb3" stroke="black" points="2129.99,-122 2016.01,-122 2016.01,-86 2129.99,-86 2129.99,-122"/>
<text text-anchor="middle" x="2073" y="-99.8" font-family="Times,serif" font-size="14.00">InboxComponent</text>
</g>
<!-- InboxModule -->
<g id="node15" class="node">
<title>InboxModule</title>
<polygon fill="#8dd3c7" stroke="black" points="2044.21,-198 2041.21,-202 2020.21,-202 2017.21,-198 1951.79,-198 1951.79,-162 2044.21,-162 2044.21,-198"/>
<text text-anchor="middle" x="1998" y="-175.8" font-family="Times,serif" font-size="14.00">InboxModule</text>
</g>
<!-- InboxComponent&#45;&gt;InboxModule -->
<g id="edge11" class="edge">
<title>InboxComponent&#45;&gt;InboxModule</title>
<path fill="none" stroke="black" d="M2030.05,-122.01C2030.05,-122.01 2030.05,-151.85 2030.05,-151.85"/>
<polygon fill="black" stroke="black" points="2026.55,-151.85 2030.05,-161.85 2033.55,-151.85 2026.55,-151.85"/>
</g>
<!-- InboxRoutingModule -->
<g id="node16" class="node">
<title>InboxRoutingModule</title>
<polygon fill="#8dd3c7" stroke="black" points="1991.83,-122 1988.83,-126 1967.83,-126 1964.83,-122 1854.17,-122 1854.17,-86 1991.83,-86 1991.83,-122"/>
<text text-anchor="middle" x="1923" y="-99.8" font-family="Times,serif" font-size="14.00">InboxRoutingModule</text>
</g>
<!-- InboxRoutingModule&#45;&gt;InboxModule -->
<g id="edge12" class="edge">
<title>InboxRoutingModule&#45;&gt;InboxModule</title>
<path fill="none" stroke="black" d="M1971.78,-122.01C1971.78,-122.01 1971.78,-151.85 1971.78,-151.85"/>
<polygon fill="black" stroke="black" points="1968.28,-151.85 1971.78,-161.85 1975.28,-151.85 1968.28,-151.85"/>
</g>
<!-- FeedbackService -->
<g id="node17" class="node">
<title>FeedbackService</title>
<ellipse fill="#fdb462" stroke="black" cx="997" cy="-104" rx="76.98" ry="18"/>
<text text-anchor="middle" x="997" y="-99.8" font-family="Times,serif" font-size="14.00">FeedbackService</text>
</g>
<!-- FeedbackService&#45;&gt;ServiceModule -->
<g id="edge13" class="edge">
<title>FeedbackService&#45;&gt;ServiceModule</title>
<path fill="none" stroke="black" d="M919.91,-104C914.44,-104 911.03,-104 911.03,-104 911.03,-104 911.03,-151.99 911.03,-151.99"/>
<polygon fill="black" stroke="black" points="907.53,-151.99 911.03,-161.99 914.53,-151.99 907.53,-151.99"/>
</g>
<!-- PortalService -->
<g id="node18" class="node">
<title>PortalService</title>
<ellipse fill="#fdb462" stroke="black" cx="839" cy="-104" rx="63.12" ry="18"/>
<text text-anchor="middle" x="839" y="-99.8" font-family="Times,serif" font-size="14.00">PortalService</text>
</g>
<!-- PortalService&#45;&gt;ServiceModule -->
<g id="edge14" class="edge">
<title>PortalService&#45;&gt;ServiceModule</title>
<path fill="none" stroke="black" d="M863.15,-120.87C863.15,-120.87 863.15,-151.85 863.15,-151.85"/>
<polygon fill="black" stroke="black" points="859.65,-151.85 863.15,-161.85 866.65,-151.85 859.65,-151.85"/>
</g>
<!-- SettingComponent -->
<g id="node19" class="node">
<title>SettingComponent</title>
<polygon fill="#ffffb3" stroke="black" points="2459.5,-122 2338.5,-122 2338.5,-86 2459.5,-86 2459.5,-122"/>
<text text-anchor="middle" x="2399" y="-99.8" font-family="Times,serif" font-size="14.00">SettingComponent</text>
</g>
<!-- SettingModule -->
<g id="node20" class="node">
<title>SettingModule</title>
<polygon fill="#8dd3c7" stroke="black" points="2369.72,-198 2366.72,-202 2345.72,-202 2342.72,-198 2270.28,-198 2270.28,-162 2369.72,-162 2369.72,-198"/>
<text text-anchor="middle" x="2320" y="-175.8" font-family="Times,serif" font-size="14.00">SettingModule</text>
</g>
<!-- SettingComponent&#45;&gt;SettingModule -->
<g id="edge15" class="edge">
<title>SettingComponent&#45;&gt;SettingModule</title>
<path fill="none" stroke="black" d="M2354.05,-122.01C2354.05,-122.01 2354.05,-151.85 2354.05,-151.85"/>
<polygon fill="black" stroke="black" points="2350.55,-151.85 2354.05,-161.85 2357.55,-151.85 2350.55,-151.85"/>
</g>
<!-- SettingRoutingModule -->
<g id="node21" class="node">
<title>SettingRoutingModule</title>
<polygon fill="#8dd3c7" stroke="black" points="2314.34,-122 2311.34,-126 2290.34,-126 2287.34,-122 2169.66,-122 2169.66,-86 2314.34,-86 2314.34,-122"/>
<text text-anchor="middle" x="2242" y="-99.8" font-family="Times,serif" font-size="14.00">SettingRoutingModule</text>
</g>
<!-- SettingRoutingModule&#45;&gt;SettingModule -->
<g id="edge16" class="edge">
<title>SettingRoutingModule&#45;&gt;SettingModule</title>
<path fill="none" stroke="black" d="M2292.28,-122.01C2292.28,-122.01 2292.28,-151.85 2292.28,-151.85"/>
<polygon fill="black" stroke="black" points="2288.78,-151.85 2292.28,-161.85 2295.78,-151.85 2288.78,-151.85"/>
</g>
<!-- HeaderComponent -->
<g id="node22" class="node">
<title>HeaderComponent</title>
<polygon fill="#ffffb3" stroke="black" points="3676.74,-122 3555.26,-122 3555.26,-86 3676.74,-86 3676.74,-122"/>
<text text-anchor="middle" x="3616" y="-99.8" font-family="Times,serif" font-size="14.00">HeaderComponent</text>
</g>
<!-- SharedModule -->
<g id="node23" class="node">
<title>SharedModule</title>
<polygon fill="#8dd3c7" stroke="black" points="3065.42,-198 3062.42,-202 3041.42,-202 3038.42,-198 2966.58,-198 2966.58,-162 3065.42,-162 3065.42,-198"/>
<text text-anchor="middle" x="3016" y="-175.8" font-family="Times,serif" font-size="14.00">SharedModule</text>
</g>
<!-- HeaderComponent&#45;&gt;SharedModule -->
<g id="edge17" class="edge">
<title>HeaderComponent&#45;&gt;SharedModule</title>
<path fill="none" stroke="black" d="M3558.75,-122.29C3558.75,-144.21 3558.75,-178 3558.75,-178 3558.75,-178 3075.6,-178 3075.6,-178"/>
<polygon fill="black" stroke="black" points="3075.6,-174.5 3065.6,-178 3075.6,-181.5 3075.6,-174.5"/>
</g>
<!-- HeaderComponent  -->
<g id="node24" class="node">
<title>HeaderComponent </title>
<polygon fill="#fb8072" stroke="black" points="3687.74,-274 3562.26,-274 3562.26,-238 3687.74,-238 3687.74,-274"/>
<text text-anchor="middle" x="3625" y="-251.8" font-family="Times,serif" font-size="14.00">HeaderComponent </text>
</g>
<!-- SharedModule&#45;&gt;HeaderComponent  -->
<g id="edge18" class="edge">
<title>SharedModule&#45;&gt;HeaderComponent </title>
<path fill="none" stroke="black" stroke-dasharray="5,2" d="M3065.4,-182C3209.56,-182 3619.62,-182 3619.62,-182 3619.62,-182 3619.62,-227.71 3619.62,-227.71"/>
<polygon fill="black" stroke="black" points="3616.13,-227.71 3619.62,-237.71 3623.13,-227.71 3616.13,-227.71"/>
</g>
<!-- AdditionalComponent  -->
<g id="node31" class="node">
<title>AdditionalComponent </title>
<polygon fill="#fb8072" stroke="black" points="3544.22,-274 3399.78,-274 3399.78,-238 3544.22,-238 3544.22,-274"/>
<text text-anchor="middle" x="3472" y="-251.8" font-family="Times,serif" font-size="14.00">AdditionalComponent </text>
</g>
<!-- SharedModule&#45;&gt;AdditionalComponent  -->
<g id="edge25" class="edge">
<title>SharedModule&#45;&gt;AdditionalComponent </title>
<path fill="none" stroke="black" stroke-dasharray="5,2" d="M3065.28,-186C3178.13,-186 3445.63,-186 3445.63,-186 3445.63,-186 3445.63,-227.97 3445.63,-227.97"/>
<polygon fill="black" stroke="black" points="3442.13,-227.97 3445.63,-237.97 3449.13,-227.97 3442.13,-227.97"/>
</g>
<!-- BreadcrumbComponent  -->
<g id="node32" class="node">
<title>BreadcrumbComponent </title>
<polygon fill="#fb8072" stroke="black" points="3382.02,-274 3227.98,-274 3227.98,-238 3382.02,-238 3382.02,-274"/>
<text text-anchor="middle" x="3305" y="-251.8" font-family="Times,serif" font-size="14.00">BreadcrumbComponent </text>
</g>
<!-- SharedModule&#45;&gt;BreadcrumbComponent  -->
<g id="edge26" class="edge">
<title>SharedModule&#45;&gt;BreadcrumbComponent </title>
<path fill="none" stroke="black" stroke-dasharray="5,2" d="M3065.3,-190C3141.21,-190 3278.08,-190 3278.08,-190 3278.08,-190 3278.08,-227.97 3278.08,-227.97"/>
<polygon fill="black" stroke="black" points="3274.58,-227.97 3278.08,-237.97 3281.58,-227.97 3274.58,-227.97"/>
</g>
<!-- ContentComponent  -->
<g id="node33" class="node">
<title>ContentComponent </title>
<polygon fill="#fb8072" stroke="black" points="3209.66,-274 3080.34,-274 3080.34,-238 3209.66,-238 3209.66,-274"/>
<text text-anchor="middle" x="3145" y="-251.8" font-family="Times,serif" font-size="14.00">ContentComponent </text>
</g>
<!-- SharedModule&#45;&gt;ContentComponent  -->
<g id="edge27" class="edge">
<title>SharedModule&#45;&gt;ContentComponent </title>
<path fill="none" stroke="black" stroke-dasharray="5,2" d="M3065.28,-194C3109.6,-194 3167.78,-194 3167.78,-194 3167.78,-194 3167.78,-227.73 3167.78,-227.73"/>
<polygon fill="black" stroke="black" points="3164.28,-227.73 3167.78,-237.73 3171.28,-227.73 3164.28,-227.73"/>
</g>
<!-- ExtraComponent  -->
<g id="node34" class="node">
<title>ExtraComponent </title>
<polygon fill="#fb8072" stroke="black" points="3062.65,-274 2947.35,-274 2947.35,-238 3062.65,-238 3062.65,-274"/>
<text text-anchor="middle" x="3005" y="-251.8" font-family="Times,serif" font-size="14.00">ExtraComponent </text>
</g>
<!-- SharedModule&#45;&gt;ExtraComponent  -->
<g id="edge28" class="edge">
<title>SharedModule&#45;&gt;ExtraComponent </title>
<path fill="none" stroke="black" stroke-dasharray="5,2" d="M3014.68,-198.01C3014.68,-198.01 3014.68,-227.85 3014.68,-227.85"/>
<polygon fill="black" stroke="black" points="3011.18,-227.85 3014.68,-237.85 3018.18,-227.85 3011.18,-227.85"/>
</g>
<!-- LoadingComponent  -->
<g id="node35" class="node">
<title>LoadingComponent </title>
<polygon fill="#fb8072" stroke="black" points="2929.99,-274 2798.01,-274 2798.01,-238 2929.99,-238 2929.99,-274"/>
<text text-anchor="middle" x="2864" y="-251.8" font-family="Times,serif" font-size="14.00">LoadingComponent </text>
</g>
<!-- SharedModule&#45;&gt;LoadingComponent  -->
<g id="edge29" class="edge">
<title>SharedModule&#45;&gt;LoadingComponent </title>
<path fill="none" stroke="black" stroke-dasharray="5,2" d="M2966.68,-193C2917.29,-193 2848.58,-193 2848.58,-193 2848.58,-193 2848.58,-227.78 2848.58,-227.78"/>
<polygon fill="black" stroke="black" points="2845.09,-227.78 2848.58,-237.78 2852.09,-227.78 2845.09,-227.78"/>
</g>
<!-- MessageComponent  -->
<g id="node36" class="node">
<title>MessageComponent </title>
<polygon fill="#fb8072" stroke="black" points="2779.81,-274 2646.19,-274 2646.19,-238 2779.81,-238 2779.81,-274"/>
<text text-anchor="middle" x="2713" y="-251.8" font-family="Times,serif" font-size="14.00">MessageComponent </text>
</g>
<!-- SharedModule&#45;&gt;MessageComponent  -->
<g id="edge30" class="edge">
<title>SharedModule&#45;&gt;MessageComponent </title>
<path fill="none" stroke="black" stroke-dasharray="5,2" d="M2966.77,-188C2882.56,-188 2719.88,-188 2719.88,-188 2719.88,-188 2719.88,-227.78 2719.88,-227.78"/>
<polygon fill="black" stroke="black" points="2716.38,-227.78 2719.88,-237.78 2723.38,-227.78 2716.38,-227.78"/>
</g>
<!-- SidebarComponent  -->
<g id="node38" class="node">
<title>SidebarComponent </title>
<polygon fill="#fb8072" stroke="black" points="2627.6,-274 2500.4,-274 2500.4,-238 2627.6,-238 2627.6,-274"/>
<text text-anchor="middle" x="2564" y="-251.8" font-family="Times,serif" font-size="14.00">SidebarComponent </text>
</g>
<!-- SharedModule&#45;&gt;SidebarComponent  -->
<g id="edge32" class="edge">
<title>SharedModule&#45;&gt;SidebarComponent </title>
<path fill="none" stroke="black" stroke-dasharray="5,2" d="M2966.46,-183C2850.83,-183 2572.88,-183 2572.88,-183 2572.88,-183 2572.88,-227.96 2572.88,-227.96"/>
<polygon fill="black" stroke="black" points="2569.38,-227.96 2572.88,-237.96 2576.38,-227.96 2569.38,-227.96"/>
</g>
<!-- AdditionalComponent -->
<g id="node25" class="node">
<title>AdditionalComponent</title>
<polygon fill="#ffffb3" stroke="black" points="3537.72,-122 3396.28,-122 3396.28,-86 3537.72,-86 3537.72,-122"/>
<text text-anchor="middle" x="3467" y="-99.8" font-family="Times,serif" font-size="14.00">AdditionalComponent</text>
</g>
<!-- AdditionalComponent&#45;&gt;SharedModule -->
<g id="edge19" class="edge">
<title>AdditionalComponent&#45;&gt;SharedModule</title>
<path fill="none" stroke="black" d="M3491.62,-122.03C3491.62,-142.77 3491.62,-174 3491.62,-174 3491.62,-174 3075.55,-174 3075.55,-174"/>
<polygon fill="black" stroke="black" points="3075.55,-170.5 3065.55,-174 3075.55,-177.5 3075.55,-170.5"/>
</g>
<!-- BreadcrumbComponent -->
<g id="node26" class="node">
<title>BreadcrumbComponent</title>
<polygon fill="#ffffb3" stroke="black" points="3378.03,-122 3227.97,-122 3227.97,-86 3378.03,-86 3378.03,-122"/>
<text text-anchor="middle" x="3303" y="-99.8" font-family="Times,serif" font-size="14.00">BreadcrumbComponent</text>
</g>
<!-- BreadcrumbComponent&#45;&gt;SharedModule -->
<g id="edge20" class="edge">
<title>BreadcrumbComponent&#45;&gt;SharedModule</title>
<path fill="none" stroke="black" d="M3328.17,-122.03C3328.17,-141.58 3328.17,-170 3328.17,-170 3328.17,-170 3075.46,-170 3075.46,-170"/>
<polygon fill="black" stroke="black" points="3075.46,-166.5 3065.46,-170 3075.46,-173.5 3075.46,-166.5"/>
</g>
<!-- ContentComponent -->
<g id="node27" class="node">
<title>ContentComponent</title>
<polygon fill="#ffffb3" stroke="black" points="3209.67,-122 3084.33,-122 3084.33,-86 3209.67,-86 3209.67,-122"/>
<text text-anchor="middle" x="3147" y="-99.8" font-family="Times,serif" font-size="14.00">ContentComponent</text>
</g>
<!-- ContentComponent&#45;&gt;SharedModule -->
<g id="edge21" class="edge">
<title>ContentComponent&#45;&gt;SharedModule</title>
<path fill="none" stroke="black" d="M3125.97,-122.27C3125.97,-140.56 3125.97,-166 3125.97,-166 3125.97,-166 3075.52,-166 3075.52,-166"/>
<polygon fill="black" stroke="black" points="3075.52,-162.5 3065.52,-166 3075.52,-169.5 3075.52,-162.5"/>
</g>
<!-- ExtraComponent -->
<g id="node28" class="node">
<title>ExtraComponent</title>
<polygon fill="#ffffb3" stroke="black" points="3065.65,-122 2954.35,-122 2954.35,-86 3065.65,-86 3065.65,-122"/>
<text text-anchor="middle" x="3010" y="-99.8" font-family="Times,serif" font-size="14.00">ExtraComponent</text>
</g>
<!-- ExtraComponent&#45;&gt;SharedModule -->
<g id="edge22" class="edge">
<title>ExtraComponent&#45;&gt;SharedModule</title>
<path fill="none" stroke="black" d="M3016,-122.01C3016,-122.01 3016,-151.85 3016,-151.85"/>
<polygon fill="black" stroke="black" points="3012.5,-151.85 3016,-161.85 3019.5,-151.85 3012.5,-151.85"/>
</g>
<!-- LoadingComponent -->
<g id="node29" class="node">
<title>LoadingComponent</title>
<polygon fill="#ffffb3" stroke="black" points="2935.99,-122 2808.01,-122 2808.01,-86 2935.99,-86 2935.99,-122"/>
<text text-anchor="middle" x="2872" y="-99.8" font-family="Times,serif" font-size="14.00">LoadingComponent</text>
</g>
<!-- LoadingComponent&#45;&gt;SharedModule -->
<g id="edge23" class="edge">
<title>LoadingComponent&#45;&gt;SharedModule</title>
<path fill="none" stroke="black" d="M2889.17,-122.17C2889.17,-141.09 2889.17,-168 2889.17,-168 2889.17,-168 2956.6,-168 2956.6,-168"/>
<polygon fill="black" stroke="black" points="2956.6,-171.5 2966.6,-168 2956.6,-164.5 2956.6,-171.5"/>
</g>
<!-- MessageComponent -->
<g id="node30" class="node">
<title>MessageComponent</title>
<polygon fill="#ffffb3" stroke="black" points="2790.31,-122 2659.69,-122 2659.69,-86 2790.31,-86 2790.31,-122"/>
<text text-anchor="middle" x="2725" y="-99.8" font-family="Times,serif" font-size="14.00">MessageComponent</text>
</g>
<!-- MessageComponent&#45;&gt;SharedModule -->
<g id="edge24" class="edge">
<title>MessageComponent&#45;&gt;SharedModule</title>
<path fill="none" stroke="black" d="M2785.03,-122.13C2785.03,-142.57 2785.03,-173 2785.03,-173 2785.03,-173 2956.73,-173 2956.73,-173"/>
<polygon fill="black" stroke="black" points="2956.73,-176.5 2966.73,-173 2956.73,-169.5 2956.73,-176.5"/>
</g>
<!-- SidebarComponent -->
<g id="node37" class="node">
<title>SidebarComponent</title>
<polygon fill="#ffffb3" stroke="black" points="2642.1,-122 2517.9,-122 2517.9,-86 2642.1,-86 2642.1,-122"/>
<text text-anchor="middle" x="2580" y="-99.8" font-family="Times,serif" font-size="14.00">SidebarComponent</text>
</g>
<!-- SidebarComponent&#45;&gt;SharedModule -->
<g id="edge31" class="edge">
<title>SidebarComponent&#45;&gt;SharedModule</title>
<path fill="none" stroke="black" d="M2634.92,-122.29C2634.92,-144.21 2634.92,-178 2634.92,-178 2634.92,-178 2956.57,-178 2956.57,-178"/>
<polygon fill="black" stroke="black" points="2956.57,-181.5 2966.57,-178 2956.57,-174.5 2956.57,-181.5"/>
</g>
<!-- NotificationUtil -->
<g id="node39" class="node">
<title>NotificationUtil</title>
<ellipse fill="#fdb462" stroke="black" cx="3801" cy="-104" rx="72.95" ry="18"/>
<text text-anchor="middle" x="3801" y="-99.8" font-family="Times,serif" font-size="14.00">NotificationUtil</text>
</g>
<!-- UtilsModule -->
<g id="node40" class="node">
<title>UtilsModule</title>
<polygon fill="#8dd3c7" stroke="black" points="3844.27,-198 3841.27,-202 3820.27,-202 3817.27,-198 3757.73,-198 3757.73,-162 3844.27,-162 3844.27,-198"/>
<text text-anchor="middle" x="3801" y="-175.8" font-family="Times,serif" font-size="14.00">UtilsModule</text>
</g>
<!-- NotificationUtil&#45;&gt;UtilsModule -->
<g id="edge33" class="edge">
<title>NotificationUtil&#45;&gt;UtilsModule</title>
<path fill="none" stroke="black" d="M3801,-122.01C3801,-122.01 3801,-151.85 3801,-151.85"/>
<polygon fill="black" stroke="black" points="3797.5,-151.85 3801,-161.85 3804.5,-151.85 3797.5,-151.85"/>
</g>
<!-- PortalViewComponent -->
<g id="node41" class="node">
<title>PortalViewComponent</title>
<polygon fill="#ffffb3" stroke="black" points="849.59,-274 704.41,-274 704.41,-238 849.59,-238 849.59,-274"/>
<text text-anchor="middle" x="777" y="-251.8" font-family="Times,serif" font-size="14.00">PortalViewComponent</text>
</g>
<!-- PortalViewComponent&#45;&gt;ViewsModule -->
<g id="edge34" class="edge">
<title>PortalViewComponent&#45;&gt;ViewsModule</title>
<path fill="none" stroke="black" d="M777,-274.11C777,-293.34 777,-321 777,-321 777,-321 314.99,-321 314.99,-321"/>
<polygon fill="black" stroke="black" points="314.99,-317.5 304.99,-321 314.99,-324.5 314.99,-317.5"/>
</g>
<!-- ViewsRoutingModule -->
<g id="node43" class="node">
<title>ViewsRoutingModule</title>
<polygon fill="#8dd3c7" stroke="black" points="164.43,-274 161.43,-278 140.43,-278 137.43,-274 23.57,-274 23.57,-238 164.43,-238 164.43,-274"/>
<text text-anchor="middle" x="94" y="-251.8" font-family="Times,serif" font-size="14.00">ViewsRoutingModule</text>
</g>
<!-- ViewsRoutingModule&#45;&gt;ViewsModule -->
<g id="edge36" class="edge">
<title>ViewsRoutingModule&#45;&gt;ViewsModule</title>
<path fill="none" stroke="black" d="M79.96,-274.13C79.96,-294.57 79.96,-325 79.96,-325 79.96,-325 199.09,-325 199.09,-325"/>
<polygon fill="black" stroke="black" points="199.09,-328.5 209.09,-325 199.09,-321.5 199.09,-328.5"/>
</g>
<!-- ViewsRoutingModule&#45;&gt;ViewsModule -->
<g id="edge38" class="edge">
<title>ViewsRoutingModule&#45;&gt;ViewsModule</title>
<path fill="none" stroke="black" d="M108.04,-274.27C108.04,-292.56 108.04,-318 108.04,-318 108.04,-318 199.05,-318 199.05,-318"/>
<polygon fill="black" stroke="black" points="199.05,-321.5 209.05,-318 199.05,-314.5 199.05,-321.5"/>
</g>
<!-- ViewsRoutingModule&#45;&gt;ViewsModule -->
<g id="edge40" class="edge">
<title>ViewsRoutingModule&#45;&gt;ViewsModule</title>
<path fill="none" stroke="black" d="M51.87,-274.01C51.87,-296.49 51.87,-332 51.87,-332 51.87,-332 199.17,-332 199.17,-332"/>
<polygon fill="black" stroke="black" points="199.17,-335.5 209.17,-332 199.17,-328.5 199.17,-335.5"/>
</g>
<!-- ViewsRoutingModule&#45;&gt;ViewsModule -->
<g id="edge42" class="edge">
<title>ViewsRoutingModule&#45;&gt;ViewsModule</title>
<path fill="none" stroke="black" d="M136.13,-274.01C136.13,-290.05 136.13,-311 136.13,-311 136.13,-311 199.23,-311 199.23,-311"/>
<polygon fill="black" stroke="black" points="199.23,-314.5 209.23,-311 199.23,-307.5 199.23,-314.5"/>
</g>
<!-- MenuViewComponent -->
<g id="node44" class="node">
<title>MenuViewComponent</title>
<polygon fill="#ffffb3" stroke="black" points="686.31,-274 541.69,-274 541.69,-238 686.31,-238 686.31,-274"/>
<text text-anchor="middle" x="614" y="-251.8" font-family="Times,serif" font-size="14.00">MenuViewComponent</text>
</g>
<!-- MenuViewComponent&#45;&gt;ViewsModule -->
<g id="edge37" class="edge">
<title>MenuViewComponent&#45;&gt;ViewsModule</title>
<path fill="none" stroke="black" d="M614,-274.02C614,-291.37 614,-315 614,-315 614,-315 314.78,-315 314.78,-315"/>
<polygon fill="black" stroke="black" points="314.78,-311.5 304.78,-315 314.78,-318.5 314.78,-311.5"/>
</g>
<!-- NotificationViewComponent -->
<g id="node45" class="node">
<title>NotificationViewComponent</title>
<polygon fill="#ffffb3" stroke="black" points="523.8,-274 344.2,-274 344.2,-238 523.8,-238 523.8,-274"/>
<text text-anchor="middle" x="434" y="-251.8" font-family="Times,serif" font-size="14.00">NotificationViewComponent</text>
</g>
<!-- NotificationViewComponent&#45;&gt;ViewsModule -->
<g id="edge39" class="edge">
<title>NotificationViewComponent&#45;&gt;ViewsModule</title>
<path fill="none" stroke="black" d="M434,-274.24C434,-289.57 434,-309 434,-309 434,-309 314.9,-309 314.9,-309"/>
<polygon fill="black" stroke="black" points="314.9,-305.5 304.9,-309 314.9,-312.5 314.9,-305.5"/>
</g>
<!-- UserViewComponent -->
<g id="node46" class="node">
<title>UserViewComponent</title>
<polygon fill="#ffffb3" stroke="black" points="326.08,-274 187.92,-274 187.92,-238 326.08,-238 326.08,-274"/>
<text text-anchor="middle" x="257" y="-251.8" font-family="Times,serif" font-size="14.00">UserViewComponent</text>
</g>
<!-- UserViewComponent&#45;&gt;ViewsModule -->
<g id="edge41" class="edge">
<title>UserViewComponent&#45;&gt;ViewsModule</title>
<path fill="none" stroke="black" d="M257,-274.11C257,-274.11 257,-292.99 257,-292.99"/>
<polygon fill="black" stroke="black" points="253.5,-292.99 257,-302.99 260.5,-292.99 253.5,-292.99"/>
</g>
</g>
</svg>
